<svg width="30" height="30" viewBox="0 0 30 30" fill="none" xmlns="http://www.w3.org/2000/svg">
<g clip-path="url(#clip0_1_74)">
<path d="M8.6875 11.7344C8.6875 12.2006 8.8727 12.6477 9.20235 12.9773C9.532 13.307 9.97911 13.4922 10.4453 13.4922C10.9115 13.4922 11.3586 13.307 11.6883 12.9773C12.0179 12.6477 12.2031 12.2006 12.2031 11.7344C12.2031 11.2682 12.0179 10.8211 11.6883 10.4914C11.3586 10.1618 10.9115 9.97656 10.4453 9.97656C9.97911 9.97656 9.532 10.1618 9.20235 10.4914C8.8727 10.8211 8.6875 11.2682 8.6875 11.7344ZM24.8594 4H4.9375C4.41895 4 4 4.41895 4 4.9375V24.2734C4 24.792 4.41895 25.2109 4.9375 25.2109H24.8594C25.3779 25.2109 25.7969 24.792 25.7969 24.2734V4.9375C25.7969 4.41895 25.3779 4 24.8594 4ZM23.9219 23.3359H5.875V5.875H23.9219V23.3359ZM17.5938 11.7344C17.5938 12.2006 17.7789 12.6477 18.1086 12.9773C18.4383 13.307 18.8854 13.4922 19.3516 13.4922C19.8178 13.4922 20.2649 13.307 20.5945 12.9773C20.9242 12.6477 21.1094 12.2006 21.1094 11.7344C21.1094 11.2682 20.9242 10.8211 20.5945 10.4914C20.2649 10.1618 19.8178 9.97656 19.3516 9.97656C18.8854 9.97656 18.4383 10.1618 18.1086 10.4914C17.7789 10.8211 17.5938 11.2682 17.5938 11.7344ZM24.9238 28.0234H4.87305C4.38965 28.0234 4 28.4424 4 28.9609V30.0156C4 30.1445 4.09668 30.25 4.2168 30.25H25.5771C25.6973 30.25 25.7939 30.1445 25.7939 30.0156V28.9609C25.7969 28.4424 25.4072 28.0234 24.9238 28.0234V28.0234ZM19.3516 17.0078H10.4453C10.3164 17.0078 10.2109 17.1133 10.2109 17.2422V19C10.2109 19.1289 10.3164 19.2344 10.4453 19.2344H19.3516C19.4805 19.2344 19.5859 19.1289 19.5859 19V17.2422C19.5859 17.1133 19.4805 17.0078 19.3516 17.0078Z" fill="#333333"/>
</g>
<defs>
<clipPath id="clip0_1_74">
<rect width="30" height="30" fill="white"/>
</clipPath>
</defs>
</svg>
