<svg width="30" height="30" viewBox="0 0 30 30" fill="none" xmlns="http://www.w3.org/2000/svg">
<path d="M1.875 4.62274C3.53437 3.92899 5.91375 3.18087 8.2275 2.94837C10.7213 2.69712 12.8363 3.06649 14.0625 4.35837V22.6321C12.3094 21.6384 10.0875 21.5015 8.03813 21.7077C5.82563 21.9327 3.59437 22.5721 1.875 23.2284V4.62274ZM15.9375 4.35837C17.1637 3.06649 19.2788 2.69712 21.7725 2.94837C24.0863 3.18087 26.4656 3.92899 28.125 4.62274V23.2284C26.4038 22.5721 24.1744 21.9309 21.9619 21.7096C19.9106 21.5015 17.6906 21.6365 15.9375 22.6321V4.35837ZM15 2.66337C13.1531 1.07524 10.4756 0.838992 8.03813 1.08274C5.19938 1.36962 2.33438 2.34274 0.549375 3.15462C0.385592 3.22911 0.246704 3.34915 0.149289 3.50043C0.051875 3.6517 4.98214e-05 3.82781 0 4.00774L0 24.6327C4.34287e-05 24.7896 0.0394446 24.9439 0.114595 25.0816C0.189744 25.2193 0.298241 25.3359 0.430145 25.4208C0.56205 25.5057 0.713146 25.5562 0.869594 25.5675C1.02604 25.5789 1.18284 25.5508 1.32563 25.4859C2.97938 24.7359 5.64375 23.834 8.22563 23.5734C10.8675 23.3071 13.0819 23.7365 14.2688 25.2177C14.3566 25.3272 14.4679 25.4156 14.5945 25.4763C14.721 25.537 14.8596 25.5686 15 25.5686C15.1404 25.5686 15.279 25.537 15.4055 25.4763C15.5321 25.4156 15.6434 25.3272 15.7313 25.2177C16.9181 23.7365 19.1325 23.3071 21.7725 23.5734C24.3563 23.834 27.0225 24.7359 28.6744 25.4859C28.8172 25.5508 28.974 25.5789 29.1304 25.5675C29.2869 25.5562 29.4379 25.5057 29.5699 25.4208C29.7018 25.3359 29.8103 25.2193 29.8854 25.0816C29.9606 24.9439 30 24.7896 30 24.6327V4.00774C30 3.82781 29.9481 3.6517 29.8507 3.50043C29.7533 3.34915 29.6144 3.22911 29.4506 3.15462C27.6656 2.34274 24.8006 1.36962 21.9619 1.08274C19.5244 0.837117 16.8469 1.07524 15 2.66337Z" fill="#333333"/>
</svg>
