<svg width="20" height="20" viewBox="0 0 20 20" fill="none" xmlns="http://www.w3.org/2000/svg">
<g clip-path="url(#clip0_40_2)">
<path d="M18.9165 9.62892L18.9399 9.60554L18.8338 9.49948L10.5005 1.16614L10.5002 1.16583C10.368 1.03442 10.1891 0.960657 10.0028 0.960657C9.81635 0.960657 9.63753 1.03442 9.50533 1.16583L9.50502 1.16614L1.17169 9.49948L1.17137 9.49916L1.16382 9.50797C1.04823 9.64295 0.987832 9.81657 0.994691 9.99414C1.00155 10.1717 1.07516 10.3402 1.20082 10.4658C1.32647 10.5915 1.49492 10.6651 1.67249 10.6719C1.85006 10.6788 2.02368 10.6184 2.15865 10.5028L2.15895 10.5031L2.16715 10.4949L9.99994 2.66215L17.8328 10.5005L17.8324 10.5008L17.8413 10.5084C17.9763 10.624 18.1499 10.6844 18.3275 10.6775C18.505 10.6706 18.6735 10.597 18.7991 10.4714C18.9248 10.3457 18.9984 10.1773 19.0053 9.99969C19.0103 9.86941 18.9791 9.74125 18.9165 9.62892Z" fill="white" stroke="white" stroke-width="0.3"/>
<path d="M8.43337 18.8889V13.4333H11.5667V18.8889V18.9889H11.6667H15.5556C15.8768 18.9889 16.1849 18.8613 16.412 18.6342C16.6391 18.407 16.7667 18.099 16.7667 17.7778V10.9778V10.9364L16.7374 10.9071L15.6263 9.79596L15.4556 9.62525V9.86667V17.6778H12.8778V12.2222V12.1222H12.7778H7.22226H7.12226V12.2222V17.6778H4.54449V10V9.75858L4.37377 9.92929L3.26266 11.0404L3.23337 11.0697V11.1111V17.7778C3.23337 18.099 3.36097 18.407 3.5881 18.6342C3.81523 18.8613 4.12328 18.9889 4.44449 18.9889H8.33337H8.43337V18.8889Z" fill="white" stroke="white" stroke-width="0.2"/>
</g>
<defs>
<clipPath id="clip0_40_2">
<rect width="20" height="20" fill="white"/>
</clipPath>
</defs>
</svg>
