<svg width="15" height="9" viewBox="0 0 15 9" fill="none" xmlns="http://www.w3.org/2000/svg">
<path d="M7.17211 7.67031L7.17212 7.67032C7.18379 7.68257 7.19783 7.69232 7.21339 7.69899C7.22895 7.70565 7.2457 7.70909 7.26262 7.70909C7.27954 7.70909 7.29629 7.70565 7.31185 7.69899C7.3274 7.69232 7.34145 7.68257 7.35312 7.67032L7.35313 7.67031L13.9906 0.704057L13.9907 0.703966C14.0129 0.680718 14.0252 0.649832 14.0252 0.617715C14.0252 0.586832 14.0138 0.557086 13.9932 0.534175L13.9916 0.532519L13.9914 0.532635L13.9826 0.52334C13.9756 0.515967 13.9672 0.510094 13.9578 0.50608C13.9485 0.502066 13.9384 0.499997 13.9282 0.499997C13.9181 0.499997 13.908 0.502066 13.8987 0.50608C13.8893 0.510094 13.8809 0.515967 13.8739 0.52334L13.8734 0.52379L7.62594 7.08379L7.26394 7.4639L6.90187 7.08386L0.651865 0.523862L0.651369 0.52334C0.644364 0.515966 0.635931 0.510093 0.626581 0.50608C0.617233 0.502066 0.607167 0.499997 0.596994 0.499997C0.586822 0.499997 0.576755 0.502066 0.567407 0.50608C0.558058 0.510093 0.549625 0.515966 0.542619 0.52334L0.542738 0.523453L0.533687 0.532505L0.532019 0.534173C0.511433 0.557083 0.5 0.58683 0.5 0.617715C0.5 0.649833 0.512363 0.680719 0.534524 0.703966L0.534611 0.704057L7.17211 7.67031Z" fill="#333333" stroke="black"/>
</svg>
