<svg width="20" height="20" viewBox="0 0 20 20" fill="none" xmlns="http://www.w3.org/2000/svg">
<path d="M6.65762 2.91622C6.54859 3.02784 6.48755 3.17769 6.48755 3.33372C6.48755 3.48976 6.54859 3.6396 6.65762 3.75122L12.7489 9.99997L6.65762 16.2475C6.54859 16.3591 6.48755 16.5089 6.48755 16.665C6.48755 16.821 6.54859 16.9708 6.65762 17.0825C6.71061 17.1369 6.77397 17.1802 6.84396 17.2097C6.91395 17.2392 6.98915 17.2545 7.06511 17.2545C7.14108 17.2545 7.21628 17.2392 7.28627 17.2097C7.35626 17.1802 7.41962 17.1369 7.47262 17.0825L13.9501 10.4362C14.0639 10.3195 14.1276 10.163 14.1276 9.99997C14.1276 9.83698 14.0639 9.68044 13.9501 9.56372L7.47262 2.91747C7.41962 2.86304 7.35626 2.81978 7.28627 2.79024C7.21628 2.7607 7.14108 2.74548 7.06511 2.74548C6.98915 2.74548 6.91395 2.7607 6.84396 2.79024C6.77397 2.81978 6.71061 2.86304 6.65762 2.91747V2.91622Z" fill="#333333"/>
</svg>
