<svg width="50" height="30" viewBox="0 0 50 30" fill="none" xmlns="http://www.w3.org/2000/svg">
<path d="M23.8688 10.0875L7.27505 20.5369C6.99804 20.7112 6.84351 20.9429 6.84351 21.1838C6.84351 21.4246 6.99804 21.6563 7.27505 21.8306L7.2938 21.8419C7.4281 21.9267 7.58974 21.9942 7.76891 22.0404C7.94807 22.0865 8.14101 22.1103 8.33599 22.1103C8.53097 22.1103 8.72391 22.0865 8.90308 22.0404C9.08224 21.9942 9.24389 21.9267 9.37818 21.8419L25.0032 12.0019L40.6219 21.8419C40.7562 21.9267 40.9179 21.9942 41.097 22.0404C41.2762 22.0865 41.4691 22.1103 41.6641 22.1103C41.8591 22.1103 42.052 22.0865 42.2312 22.0404C42.4104 21.9942 42.572 21.9267 42.7063 21.8419L42.7251 21.8306C43.0021 21.6563 43.1566 21.4246 43.1566 21.1838C43.1566 20.9429 43.0021 20.7112 42.7251 20.5369L26.1313 10.0875C25.9854 9.99561 25.8099 9.92245 25.6154 9.87246C25.421 9.82247 25.2116 9.79669 25.0001 9.79669C24.7885 9.79669 24.5792 9.82247 24.3847 9.87246C24.1902 9.92245 24.0147 9.99561 23.8688 10.0875Z" fill="#EEEEEE"/>
</svg>
