<svg width="38" height="37" viewBox="0 0 38 37" fill="none" xmlns="http://www.w3.org/2000/svg">
<rect width="37.3921" height="37" rx="5" fill="#00B2FF"/>
<path d="M19.2301 10.25C14.0678 10.25 9.88208 14.168 9.88208 19C9.88208 23.832 14.0678 27.75 19.2301 27.75C24.3924 27.75 28.5781 23.832 28.5781 19C28.5781 14.168 24.3924 10.25 19.2301 10.25ZM19.2301 26.2656C14.9442 26.2656 11.4679 23.0117 11.4679 19C11.4679 14.9883 14.9442 11.7344 19.2301 11.7344C23.516 11.7344 26.9923 14.9883 26.9923 19C26.9923 23.0117 23.516 26.2656 19.2301 26.2656Z" fill="white"/>
<path d="M18.2285 15.5625C18.2285 15.8111 18.334 16.0496 18.5219 16.2254C18.7097 16.4012 18.9645 16.5 19.2301 16.5C19.4957 16.5 19.7505 16.4012 19.9383 16.2254C20.1261 16.0496 20.2317 15.8111 20.2317 15.5625C20.2317 15.3139 20.1261 15.0754 19.9383 14.8996C19.7505 14.7238 19.4957 14.625 19.2301 14.625C18.9645 14.625 18.7097 14.7238 18.5219 14.8996C18.334 15.0754 18.2285 15.3139 18.2285 15.5625ZM19.7309 17.75H18.7293C18.6375 17.75 18.5624 17.8203 18.5624 17.9062V23.2188C18.5624 23.3047 18.6375 23.375 18.7293 23.375H19.7309C19.8227 23.375 19.8978 23.3047 19.8978 23.2188V17.9062C19.8978 17.8203 19.8227 17.75 19.7309 17.75Z" fill="white"/>
</svg>
