<svg width="100" height="100" viewBox="0 0 100 100" fill="none" xmlns="http://www.w3.org/2000/svg">
<path d="M66.2105 68.8326H94M80.1053 54.9379V82.7273M89.3684 41.0431V31.78C89.3668 30.1556 88.938 28.5601 88.125 27.1538C87.3121 25.7474 86.1436 24.5795 84.7368 23.7673L52.3158 5.24103C50.9076 4.42802 49.3102 4 47.6842 4C46.0582 4 44.4608 4.42802 43.0526 5.24103L10.6316 23.7673C9.22479 24.5795 8.05633 25.7474 7.2434 27.1538C6.43047 28.5601 6.00167 30.1556 6 31.78V68.8326C6.00167 70.457 6.43047 72.0524 7.2434 73.4588C8.05633 74.8652 9.22479 76.033 10.6316 76.8452L43.0526 95.3715C44.4608 96.1846 46.0582 96.6126 47.6842 96.6126C49.3102 96.6126 50.9076 96.1846 52.3158 95.3715L61.5789 90.0915M68.5263 38.2642L27.0737 14.3652" stroke="#333333" stroke-width="1.25" stroke-linecap="round" stroke-linejoin="round"/>
<path d="M7.34314 27.1484L47.6842 50.3063L88.0252 27.1484M47.6842 96.6221V50.3063" stroke="#333333" stroke-width="1.25" stroke-linecap="round" stroke-linejoin="round"/>
</svg>
