<svg width="21" height="20" viewBox="0 0 21 20" fill="none" xmlns="http://www.w3.org/2000/svg">
<path d="M10.7252 8.5C11.2267 8.50014 11.7077 8.69936 12.0624 9.05391C12.4173 9.40868 12.6168 9.88992 12.6169 10.3918C12.617 10.8936 12.4178 11.3749 12.063 11.7299C11.7082 12.0848 11.227 12.2842 10.7252 12.2844V8.5ZM10.7252 8.5C10.4768 8.5 10.2307 8.54894 10.0011 8.64403C9.77156 8.73913 9.56297 8.8785 9.38726 9.05421C9.21156 9.22992 9.07218 9.43851 8.97709 9.66808C8.88199 9.89766 8.83305 10.1437 8.83305 10.3922C8.83305 10.6407 8.88199 10.8867 8.97709 11.1163C9.07218 11.3459 9.21156 11.5545 9.38726 11.7302C9.56297 11.9059 9.77156 12.0453 10.0011 12.1404C10.2307 12.2354 10.4767 12.2844 10.7251 12.2844L10.7252 8.5ZM3.11717 8.5C3.61866 8.50014 4.0996 8.69936 4.45431 9.05391C4.80925 9.40868 5.00871 9.88992 5.00882 10.3918C5.00894 10.8936 4.80969 11.3749 4.45492 11.7299C4.10017 12.0848 3.61897 12.2842 3.11717 12.2844V8.5ZM3.11717 8.5C2.86869 8.5 2.62263 8.54894 2.39306 8.64403C2.16349 8.73913 1.95489 8.8785 1.77919 9.05421C1.60348 9.22992 1.4641 9.43851 1.36901 9.66808C1.27392 9.89766 1.22498 10.1437 1.22498 10.3922C1.22498 10.6407 1.27392 10.8867 1.36901 11.1163C1.4641 11.3459 1.60348 11.5545 1.77919 11.7302C1.95489 11.9059 2.16349 12.0453 2.39306 12.1404C2.6226 12.2354 2.86861 12.2844 3.11706 12.2844L3.11717 8.5ZM18.3333 8.5C18.0848 8.5 17.8388 8.54894 17.6092 8.64403C17.3796 8.73913 17.171 8.8785 16.9953 9.05421C16.8196 9.22992 16.6803 9.43851 16.5852 9.66808C16.4901 9.89765 16.4411 10.1437 16.4411 10.3922C16.4411 10.6407 16.4901 10.8867 16.5852 11.1163C16.6803 11.3459 16.8196 11.5545 16.9953 11.7302C17.171 11.9059 17.3796 12.0453 17.6092 12.1404C17.8387 12.2354 18.0848 12.2844 18.3332 12.2844L18.3333 8.5ZM18.3333 8.5C18.8348 8.50014 19.3158 8.69936 19.6705 9.05391C20.0254 9.40868 20.2249 9.88992 20.225 10.3918C20.2251 10.8936 20.0258 11.3749 19.6711 11.7299C19.3163 12.0848 18.8351 12.2842 18.3333 12.2844V8.5Z" fill="white" stroke="white"/>
</svg>
