<svg width="38" height="37" viewBox="0 0 38 37" fill="none" xmlns="http://www.w3.org/2000/svg">
<rect width="37.3921" height="37" rx="5" fill="#00B2FF"/>
<path d="M27.4952 15.2413L22.1973 14.4845L19.829 9.76568C19.7643 9.63648 19.6579 9.53189 19.5265 9.46832C19.1968 9.30836 18.7961 9.44166 18.6313 9.76568L16.263 14.4845L10.9651 15.2413C10.819 15.2618 10.6855 15.3295 10.5832 15.432C10.4596 15.5569 10.3915 15.7248 10.3939 15.899C10.3962 16.0732 10.4688 16.2394 10.5958 16.361L14.4289 20.0339L13.5233 25.2204C13.502 25.341 13.5156 25.4651 13.5625 25.5785C13.6093 25.692 13.6876 25.7903 13.7884 25.8622C13.8892 25.9342 14.0085 25.9769 14.1328 25.9856C14.257 25.9943 14.3813 25.9687 14.4915 25.9115L19.2302 23.4628L23.9688 25.9115C24.0982 25.9792 24.2485 26.0017 24.3924 25.9771C24.7555 25.9156 24.9996 25.5772 24.937 25.2204L24.0314 20.0339L27.8646 16.361C27.9689 16.2605 28.0377 16.1293 28.0586 15.9857C28.1149 15.6268 27.8604 15.2946 27.4952 15.2413ZM22.4185 19.5171L23.1718 23.8299L19.2302 21.7956L15.2885 23.832L16.0418 19.5192L12.8535 16.4635L17.2604 15.8339L19.2302 11.9108L21.1999 15.8339L25.6068 16.4635L22.4185 19.5171Z" fill="white"/>
</svg>
