<svg width="55" height="55" viewBox="0 0 55 55" fill="none" xmlns="http://www.w3.org/2000/svg">
<path d="M36.6666 2.29169C37.2744 2.29169 37.8573 2.53313 38.287 2.9629C38.7168 3.39267 38.9583 3.97557 38.9583 4.58335V6.87502H50.4166V20.625H45.7897L52.0826 37.9134C52.5334 39.0769 52.7419 40.3202 52.6953 41.5671C52.6487 42.8141 52.348 44.0384 51.8117 45.165C51.2753 46.2917 50.5146 47.2969 49.5761 48.1193C48.6376 48.9416 47.5411 49.5637 46.3538 49.9474C45.1664 50.3311 43.9132 50.4683 42.671 50.3507C41.4288 50.2331 40.2236 49.8631 39.1294 49.2634C38.0351 48.6637 37.0749 47.8469 36.3074 46.863C35.5399 45.8792 34.9813 44.749 34.666 43.5417H24.9195C24.3987 45.553 23.2103 47.3278 21.5491 48.5756C19.8879 49.8234 17.8523 50.4701 15.7755 50.4099C13.6987 50.3498 11.7039 49.5862 10.1178 48.2444C8.53158 46.9025 7.44802 45.0618 7.0445 43.0238C6.30184 42.6358 5.67973 42.0517 5.2458 41.335C4.81187 40.6182 4.58272 39.7962 4.58325 38.9584V16.0417C4.58325 15.4339 4.8247 14.851 5.25447 14.4212C5.68424 13.9915 6.26713 13.75 6.87492 13.75H22.9166C23.5244 13.75 24.1073 13.9915 24.537 14.4212C24.9668 14.851 25.2083 15.4339 25.2083 16.0417V27.5C25.2083 28.1078 25.4497 28.6907 25.8795 29.1205C26.3092 29.5502 26.8921 29.7917 27.4999 29.7917H32.0833C32.691 29.7917 33.2739 29.5502 33.7037 29.1205C34.1335 28.6907 34.3749 28.1078 34.3749 27.5V6.87502H27.4999V2.29169H36.6666ZM16.0416 36.6667C14.826 36.6667 13.6602 37.1496 12.8007 38.0091C11.9411 38.8687 11.4583 40.0344 11.4583 41.25C11.4583 42.4656 11.9411 43.6314 12.8007 44.4909C13.6602 45.3505 14.826 45.8334 16.0416 45.8334C17.2572 45.8334 18.423 45.3505 19.2825 44.4909C20.142 43.6314 20.6249 42.4656 20.6249 41.25C20.6249 40.0344 20.142 38.8687 19.2825 38.0091C18.423 37.1496 17.2572 36.6667 16.0416 36.6667ZM43.5416 36.6644C42.5669 36.6647 41.6177 36.9757 40.8318 37.5522C40.046 38.1288 39.4643 38.9408 39.1715 39.8705C38.8786 40.8001 38.8897 41.7989 39.2031 42.7218C39.5166 43.6447 40.1161 44.4436 40.9146 45.0025C41.7131 45.5615 42.669 45.8513 43.6434 45.83C44.6178 45.8086 45.5601 45.4772 46.3333 44.8838C47.1066 44.2904 47.6705 43.4659 47.9432 42.5302C48.2159 41.5945 48.1833 40.5961 47.8499 39.6802L47.8133 39.5794C47.477 38.7204 46.8894 37.9829 46.1273 37.4632C45.3652 36.9436 44.464 36.666 43.5416 36.6667V36.6644ZM40.913 20.625H38.9583V27.5C38.9583 29.3234 38.2339 31.0721 36.9446 32.3614C35.6553 33.6507 33.9066 34.375 32.0833 34.375H27.4999C25.6766 34.375 23.9279 33.6507 22.6386 32.3614C21.3492 31.0721 20.6249 29.3234 20.6249 27.5H9.16659V35.1863C10.2685 33.9385 11.6893 33.0141 13.2766 32.5123C14.8638 32.0106 16.5578 31.9503 18.1767 32.3379C19.7956 32.7256 21.2785 33.5466 22.4664 34.7129C23.6542 35.8792 24.5023 37.3468 24.9195 38.9584H34.6637C35.2411 36.7244 36.6393 34.7902 38.5796 33.5414C40.5198 32.2926 42.8595 31.8211 45.132 32.2209L40.913 20.625ZM20.6249 18.3334H9.16659V22.9167H20.6249V18.3334ZM45.8333 11.4584H38.9583V16.0417H45.8333V11.4584Z" fill="#333333"/>
</svg>
