<svg width="15" height="15" viewBox="0 0 15 15" fill="none" xmlns="http://www.w3.org/2000/svg">
<path d="M5.10209 2.14225L12.3484 7.63816C12.4756 7.73469 12.5469 7.86416 12.5469 7.99897C12.5469 8.13377 12.4756 8.26324 12.3484 8.35978L5.10209 13.8578C5.04281 13.9028 4.97192 13.9386 4.89363 13.963C4.81533 13.9874 4.73121 14 4.64623 14C4.56124 14 4.47712 13.9874 4.39882 13.963C4.32053 13.9386 4.24965 13.9028 4.19036 13.8578C4.06839 13.7654 4.00011 13.6415 4.00011 13.5125C4.00011 13.3834 4.06839 13.2595 4.19036 13.1671L11.0046 7.99897L4.19036 2.83182C4.06881 2.73955 4.0008 2.61583 4.0008 2.48703C4.0008 2.35823 4.06881 2.23452 4.19036 2.14225C4.24965 2.09723 4.32053 2.06145 4.39882 2.03702C4.47712 2.01259 4.56124 2 4.64623 2C4.73121 2 4.81533 2.01259 4.89363 2.03702C4.97192 2.06145 5.04281 2.09723 5.10209 2.14225Z" fill="#AAAAAA"/>
</svg>
