<svg width="20" height="20" viewBox="0 0 20 20" fill="none" xmlns="http://www.w3.org/2000/svg">
<path d="M9.19083 2.11668C9.43837 1.97921 9.71685 1.90707 10 1.90707C10.2831 1.90707 10.5616 1.97921 10.8092 2.11668L17.0717 5.59501C17.2015 5.66721 17.3097 5.77281 17.385 5.90087C17.4603 6.02892 17.5 6.17479 17.5 6.32335V13.1858C17.4999 13.4831 17.4204 13.7748 17.2696 14.031C17.1188 14.2871 16.9023 14.4982 16.6425 14.6425L10.8092 17.8842C10.5616 18.0216 10.2831 18.0938 10 18.0938C9.71685 18.0938 9.43837 18.0216 9.19083 17.8842L3.3575 14.6425C3.0978 14.4983 2.88136 14.2873 2.7306 14.0313C2.57983 13.7754 2.50022 13.4837 2.5 13.1867V6.32335C2.49999 6.17479 2.5397 6.02892 2.61501 5.90087C2.69032 5.77281 2.7985 5.66721 2.92833 5.59501L9.19167 2.11668H9.19083Z" stroke="white" stroke-width="1.25" stroke-linecap="round" stroke-linejoin="round"/>
<path d="M2.5 5.83334L10 10M10 10L17.5 5.83334M10 10V18.3333" stroke="white" stroke-width="1.25" stroke-linejoin="round"/>
<path d="M6.25 7.91667L13.75 3.75M5 10.2733L7.5 11.6667" stroke="white" stroke-width="1.25" stroke-linecap="round" stroke-linejoin="round"/>
</svg>
