<svg width="55" height="55" viewBox="0 0 55 55" fill="none" xmlns="http://www.w3.org/2000/svg">
<path d="M41.6698 4C42.0664 3.99962 42.451 4.13645 42.7583 4.38729L42.9302 4.54771L50.4308 12.6373L50.4996 12.7244C50.7333 13.036 50.8387 13.389 50.8387 13.7327L50.8341 18.1327C50.8341 20.4106 49.9679 22.4869 48.5425 24.0452V48.1146C48.5425 48.5299 48.392 48.9312 48.119 49.2442C47.8461 49.5572 47.4689 49.7608 47.0575 49.8173L46.8237 49.8333H9.0181C8.60236 49.8339 8.20053 49.6837 7.88703 49.4107C7.57354 49.1376 7.36963 48.7602 7.31309 48.3483L7.29935 48.1146L7.29476 24.0475C5.93971 22.5646 5.13619 20.6606 5.01914 18.6552L5.00309 18.1327V13.8313C4.98318 13.5048 5.05969 13.1796 5.22309 12.8963L5.37205 12.6785L5.46372 12.5731L12.9093 4.55C13.1784 4.25962 13.5394 4.07102 13.9314 4.01604L14.1698 4H41.6698ZM34.9827 23.3463L34.9552 23.3875C34.1385 24.4832 33.0771 25.3729 31.8556 25.9857C30.6341 26.5984 29.2863 26.9172 27.9198 26.9167C26.5447 26.918 25.1885 26.5959 23.9608 25.9765C22.7331 25.3571 21.6683 24.4577 20.8523 23.3508C20.037 24.4573 18.9729 25.3565 17.746 25.976C16.5191 26.5954 15.1637 26.9176 13.7893 26.9167C12.7146 26.9167 11.6856 26.7242 10.7323 26.3713L10.7346 46.3958H14.1698V30.9317C14.1699 30.516 14.3206 30.1144 14.594 29.8014C14.8675 29.4883 15.2452 29.2849 15.6571 29.229L15.8885 29.2083H26.1918C26.6072 29.2084 27.0085 29.3588 27.3215 29.6318C27.6345 29.9048 27.8381 30.2819 27.8946 30.6933L27.9106 30.9271V46.3912H45.1027V26.369C43.3162 27.0328 41.3622 27.0966 39.5362 26.5508C37.7103 26.005 36.1118 24.8793 34.9827 23.344V23.3463ZM24.4708 32.6481H17.6073V46.3935H24.4708V32.6481ZM39.9625 29.2106C40.3778 29.2106 40.7791 29.3611 41.0921 29.6341C41.4051 29.907 41.6087 30.2841 41.6652 30.6956L41.6812 30.9294V38.9548C41.6812 39.3701 41.5308 39.7714 41.2578 40.0844C40.9848 40.3974 40.6077 40.601 40.1962 40.6575L39.9625 40.6735H31.9393C31.524 40.6735 31.1227 40.5231 30.8097 40.2501C30.4967 39.9771 30.2931 39.6 30.2366 39.1885L30.2206 38.9548V30.9294C30.2206 30.514 30.371 30.1128 30.644 29.7997C30.917 29.4867 31.2941 29.2832 31.7056 29.2267L31.9393 29.2106H39.9625ZM38.2437 32.6481H33.6558V37.236H38.2414V32.6481H38.2437ZM19.1312 15.4629H8.44289V18.1327L8.45893 18.5223L8.5231 19.054L8.59872 19.4115L8.7133 19.8056L8.83705 20.1448L8.92872 20.3602C8.99976 20.516 9.07997 20.6673 9.16476 20.814L9.4008 21.1852L9.52455 21.3548L9.82018 21.7123L10.1456 22.0423L10.3656 22.2371L10.4618 22.315C11.1837 22.8879 12.0546 23.2821 13.0102 23.4219L13.4227 23.4654L13.7893 23.4769C15.1438 23.4771 16.4478 22.9631 17.4378 22.0386C18.4277 21.1142 19.0297 19.8484 19.1221 18.4971L19.1358 18.1304V15.4652L19.1312 15.4629ZM33.2593 15.4629H22.571V18.1327C22.571 20.8369 24.5831 23.0758 27.1933 23.4287L27.5508 23.4654L27.9175 23.4769C29.2719 23.4771 30.5759 22.9631 31.5659 22.0386C32.5558 21.1142 33.1578 19.8484 33.2502 18.4971L33.2639 18.1304V15.4652L33.2593 15.4629ZM47.3921 15.4629H36.7014L36.7037 18.1327C36.7037 20.8369 38.7158 23.0758 41.3237 23.4287L41.6835 23.4654L42.0502 23.4769C43.3427 23.4769 44.5275 23.0185 45.4533 22.2531L45.6596 22.0744L45.9254 21.8154L46.26 21.4258C46.3837 21.2677 46.4983 21.105 46.6037 20.9308L46.8421 20.5046L46.9864 20.1883L47.1193 19.8331L47.1881 19.6131L47.2752 19.2648L47.3393 18.905L47.3806 18.5223L47.3943 18.1327V15.4629H47.3921ZM21.1868 7.43521H14.9191L10.6635 12.0254H19.7775L21.1891 7.43521H21.1868ZM31.0571 7.43521H24.7825L23.3708 12.0254H32.4687L31.0571 7.43521V7.43521ZM40.9181 7.43521H34.6527L36.0643 12.0254H45.176L40.9181 7.43521V7.43521Z" fill="#333333"/>
</svg>
