<svg width="58" height="61" viewBox="0 0 58 61" fill="none" xmlns="http://www.w3.org/2000/svg">
<path d="M37.7143 27.461C44.8571 27.461 50.5714 33.2403 50.5714 40.4643C50.5714 43.0071 49.8571 45.4055 48.6 47.3994L57.4 56.3571L53.4286 60.3737L44.5143 51.5026C42.5429 52.7451 40.2 53.4675 37.7143 53.4675C30.5714 53.4675 24.8571 47.6883 24.8571 40.4643C24.8571 33.2403 30.5714 27.461 37.7143 27.461ZM37.7143 33.2403C35.8199 33.2403 34.0031 34.0014 32.6635 35.3561C31.324 36.7109 30.5714 38.5484 30.5714 40.4643C30.5714 42.3802 31.324 44.2177 32.6635 45.5724C34.0031 46.9272 35.8199 47.6883 37.7143 47.6883C39.6087 47.6883 41.4255 46.9272 42.7651 45.5724C44.1046 44.2177 44.8571 42.3802 44.8571 40.4643C44.8571 38.5484 44.1046 36.7109 42.7651 35.3561C41.4255 34.0014 39.6087 33.2403 37.7143 33.2403ZM7.71429 1.45454H47.7143C50.8857 1.45454 53.4286 4.0263 53.4286 7.23377V30.4373C52 28.1256 50.0286 26.1318 47.7143 24.5714V7.23377H7.71429V47.6883H20.5714C21.4571 49.8555 22.7429 51.7916 24.3143 53.4675H7.71429C4.54286 53.4675 2 50.8958 2 47.6883V7.23377C2 4.0263 4.54286 1.45454 7.71429 1.45454ZM13.4286 13.013H42V18.7922H13.4286V13.013ZM13.4286 24.5714H27.8C25.5143 26.0162 23.5429 28.0101 22 30.3506H13.4286V24.5714ZM13.4286 36.1299H19.6286C19.3143 37.5747 19.1429 39.0195 19.1429 40.4643V41.9091H13.4286V36.1299Z" fill="#F99F20"/>
</svg>
