<svg width="16" height="17" viewBox="0 0 16 17" fill="none" xmlns="http://www.w3.org/2000/svg">
<path d="M10.3146 7.42651C12.3775 7.42651 14.0279 9.07684 14.0279 11.1398C14.0279 11.8659 13.8216 12.5508 13.4585 13.1202L16 15.6782L14.853 16.8252L12.2785 14.2919C11.7091 14.6467 11.0325 14.853 10.3146 14.853C8.25168 14.853 6.60134 13.2027 6.60134 11.1398C6.60134 9.07684 8.25168 7.42651 10.3146 7.42651ZM10.3146 9.07684C9.76748 9.07684 9.24276 9.29419 8.85589 9.68106C8.46902 10.0679 8.25168 10.5926 8.25168 11.1398C8.25168 11.6869 8.46902 12.2116 8.85589 12.5985C9.24276 12.9853 9.76748 13.2027 10.3146 13.2027C10.8617 13.2027 11.3864 12.9853 11.7733 12.5985C12.1602 12.2116 12.3775 11.6869 12.3775 11.1398C12.3775 10.5926 12.1602 10.0679 11.7733 9.68106C11.3864 9.29419 10.8617 9.07684 10.3146 9.07684ZM1.65034 0H13.2027C14.1186 0 14.853 0.734399 14.853 1.65034V8.27643C14.4404 7.6163 13.8711 7.04693 13.2027 6.60134V1.65034H1.65034V13.2027H5.36359C5.61939 13.8216 5.99072 14.3744 6.44456 14.853H1.65034C0.734399 14.853 0 14.1186 0 13.2027V1.65034C0 0.734399 0.734399 0 1.65034 0ZM3.30067 3.30067H11.5523V4.95101H3.30067V3.30067ZM3.30067 6.60134H7.45126C6.79113 7.01392 6.22176 7.58329 5.77617 8.25168H3.30067V6.60134ZM3.30067 9.90201H5.09128C5.00052 10.3146 4.95101 10.7272 4.95101 11.1398V11.5523H3.30067V9.90201Z" fill="white"/>
</svg>
