<svg width="57" height="59" viewBox="0 0 57 59" fill="none" xmlns="http://www.w3.org/2000/svg">
<path d="M50.2444 51.2444V8.15556H7.15556V51.2444H50.2444ZM50.2444 2C51.877 2 53.4427 2.64853 54.5971 3.80292C55.7515 4.95731 56.4 6.523 56.4 8.15556V51.2444C56.4 52.877 55.7515 54.4427 54.5971 55.5971C53.4427 56.7515 51.877 57.4 50.2444 57.4H7.15556C5.523 57.4 3.95731 56.7515 2.80292 55.5971C1.64853 54.4427 1 52.877 1 51.2444V8.15556C1 6.523 1.64853 4.95731 2.80292 3.80292C3.95731 2.64853 5.523 2 7.15556 2H50.2444ZM43.1656 21.5439L40.0878 24.6217L33.7783 18.3122L36.8561 15.2344C37.5024 14.5573 38.5797 14.5573 39.226 15.2344L43.1656 19.174C43.8427 19.8203 43.8427 20.8976 43.1656 21.5439ZM13.3111 38.7487L31.9624 20.0973L38.3027 26.4376L19.6513 45.0889H13.3111V38.7487Z" fill="#F99F20"/>
</svg>
