<svg width="30" height="30" viewBox="0 0 30 30" fill="none" xmlns="http://www.w3.org/2000/svg">
<path d="M29.7147 14.9469L26.7368 8.38437C26.6608 8.21492 26.5337 8.07034 26.3713 7.96865C26.2089 7.86696 26.0184 7.81265 25.8235 7.8125H22.8456V5.9375C22.8456 5.68886 22.741 5.4504 22.5548 5.27459C22.3687 5.09877 22.1162 5 21.8529 5H2.99265C2.72938 5 2.4769 5.09877 2.29074 5.27459C2.10458 5.4504 2 5.68886 2 5.9375V21.875C2 22.1236 2.10458 22.3621 2.29074 22.5379C2.4769 22.7137 2.72938 22.8125 2.99265 22.8125H5.11691C5.3455 23.6069 5.84452 24.3082 6.53699 24.8082C7.22945 25.3082 8.07688 25.5791 8.94853 25.5791C9.82018 25.5791 10.6676 25.3082 11.3601 24.8082C12.0525 24.3082 12.5516 23.6069 12.7801 22.8125H19.014C19.2426 23.6069 19.7416 24.3082 20.434 24.8082C21.1265 25.3082 21.9739 25.5791 22.8456 25.5791C23.7172 25.5791 24.5647 25.3082 25.2571 24.8082C25.9496 24.3082 26.4486 23.6069 26.6772 22.8125H28.8015C29.0647 22.8125 29.3172 22.7137 29.5034 22.5379C29.6895 22.3621 29.7941 22.1236 29.7941 21.875V15.3125C29.7939 15.1868 29.7669 15.0625 29.7147 14.9469ZM22.8456 9.6875H25.1684L27.2926 14.375H22.8456V9.6875ZM8.94853 23.75C8.55588 23.75 8.17204 23.64 7.84556 23.434C7.51908 23.228 7.26462 22.9351 7.11436 22.5925C6.96409 22.2499 6.92478 21.8729 7.00138 21.5092C7.07798 21.1455 7.26707 20.8114 7.54471 20.5492C7.82236 20.287 8.17611 20.1084 8.56122 20.036C8.94633 19.9637 9.3455 20.0008 9.70827 20.1427C10.071 20.2846 10.3811 20.525 10.5992 20.8333C10.8174 21.1416 10.9338 21.5042 10.9338 21.875C10.9338 22.3723 10.7247 22.8492 10.3523 23.2008C9.98003 23.5525 9.47506 23.75 8.94853 23.75ZM19.014 20.9375H12.7801C12.5516 20.1431 12.0525 19.4418 11.3601 18.9418C10.6676 18.4418 9.82018 18.1709 8.94853 18.1709C8.07688 18.1709 7.22945 18.4418 6.53699 18.9418C5.84452 19.4418 5.3455 20.1431 5.11691 20.9375H3.98529V6.875H20.8603V18.65C20.4083 18.8978 20.0125 19.2274 19.6957 19.6199C19.3788 20.0125 19.1472 20.4602 19.014 20.9375ZM22.8456 23.75C22.4529 23.75 22.0691 23.64 21.7426 23.434C21.4161 23.228 21.1617 22.9351 21.0114 22.5925C20.8612 22.2499 20.8218 21.8729 20.8984 21.5092C20.975 21.1455 21.1641 20.8114 21.4418 20.5492C21.7194 20.287 22.0732 20.1084 22.4583 20.036C22.8434 19.9637 23.2426 20.0008 23.6053 20.1427C23.9681 20.2846 24.2782 20.525 24.4963 20.8333C24.7144 21.1416 24.8309 21.5042 24.8309 21.875C24.8309 22.3723 24.6217 22.8492 24.2494 23.2008C23.8771 23.5525 23.3721 23.75 22.8456 23.75ZM27.8088 20.9375H26.6772C26.4577 20.1346 25.9626 19.423 25.2693 18.9141C24.576 18.4052 23.7236 18.1277 22.8456 18.125V16.25H27.8088V20.9375Z" fill="#333333"/>
</svg>
