<svg width="38" height="40" viewBox="0 0 38 40" fill="none" xmlns="http://www.w3.org/2000/svg">
<path d="M18.75 0C16.6898 0 14.6758 0.610927 12.9628 1.75552C11.2498 2.90012 9.91467 4.52698 9.12626 6.43038C8.33784 8.33378 8.13156 10.4282 8.53349 12.4489C8.93542 14.4695 9.92751 16.3256 11.3843 17.7824C12.8411 19.2392 14.6972 20.2313 16.7178 20.6332C18.7384 21.0351 20.8329 20.8288 22.7363 20.0404C24.6397 19.252 26.2665 17.9169 27.4111 16.2039C28.5557 14.4908 29.1667 12.4769 29.1667 10.4167C29.1667 7.65399 28.0692 5.00447 26.1157 3.05097C24.1622 1.09747 21.5127 0 18.75 0ZM18.75 16.6667C17.5139 16.6667 16.3055 16.3001 15.2777 15.6134C14.2499 14.9266 13.4488 13.9505 12.9758 12.8084C12.5027 11.6664 12.3789 10.4097 12.6201 9.19735C12.8612 7.98497 13.4565 6.87133 14.3306 5.99725C15.2047 5.12317 16.3183 4.52792 17.5307 4.28676C18.7431 4.0456 19.9997 4.16937 21.1418 4.64242C22.2838 5.11547 23.2599 5.91654 23.9467 6.94435C24.6334 7.97216 25 9.18053 25 10.4167C25 12.0743 24.3415 13.664 23.1694 14.8361C21.9973 16.0082 20.4076 16.6667 18.75 16.6667ZM37.5 39.5833V37.5C37.5 33.6323 35.9635 29.9229 33.2286 27.188C30.4937 24.4531 26.7844 22.9167 22.9167 22.9167H14.5833C10.7156 22.9167 7.00626 24.4531 4.27136 27.188C1.53645 29.9229 0 33.6323 0 37.5V39.5833H4.16667V37.5C4.16667 34.7373 5.26413 32.0878 7.21764 30.1343C9.17114 28.1808 11.8207 27.0833 14.5833 27.0833H22.9167C25.6793 27.0833 28.3289 28.1808 30.2824 30.1343C32.2359 32.0878 33.3333 34.7373 33.3333 37.5V39.5833H37.5Z" fill="#333333"/>
</svg>
